<?xml version="1.0" encoding="utf-8"?>
<svg width="800px" height="800px" viewBox="0 0 24 24" fill="none" xmlns="http://www.w3.org/2000/svg">
<path fill-rule="evenodd" clip-rule="evenodd" d="M12 8.25C9.92893 8.25 8.25 9.92893 8.25 12C8.25 14.0711 9.92893 15.75 12 15.75C14.0711 15.75 15.75 14.0711 15.75 12C15.75 9.92893 14.0711 8.25 12 8.25ZM9.75 12C9.75 10.7574 10.7574 9.75 12 9.75C13.2426 9.75 14.25 10.7574 14.25 12C14.25 13.2426 13.2426 14.25 12 14.25C10.7574 14.25 9.75 13.2426 9.75 12Z" fill="#080341"/>
<path fill-rule="evenodd" clip-rule="evenodd" d="M12 5.25C9.22583 5.25 6.79696 6.91121 5.12798 8.44832C4.28009 9.22922 3.59623 10.0078 3.1244 10.5906C2.88801 10.8825 2.70365 11.1268 2.57733 11.2997C2.51414 11.3862 2.46539 11.4549 2.43184 11.5029C2.41506 11.5269 2.40207 11.5457 2.39297 11.559L2.38224 11.5747L2.37908 11.5794L2.37806 11.5809L2.09656 12L2.37741 12.4181L2.37806 12.4191L2.37908 12.4206L2.38224 12.4253L2.39297 12.441C2.40207 12.4543 2.41506 12.4731 2.43184 12.4971C2.46539 12.5451 2.51414 12.6138 2.57733 12.7003C2.70365 12.8732 2.88801 13.1175 3.1244 13.4094C3.59623 13.9922 4.28009 14.7708 5.12798 15.5517C6.79696 17.0888 9.22583 18.75 12 18.75C14.7742 18.75 17.2031 17.0888 18.8721 15.5517C19.72 14.7708 20.4038 13.9922 20.8757 13.4094C21.112 13.1175 21.2964 12.8732 21.4227 12.7003C21.4859 12.6138 21.5347 12.5451 21.5682 12.4971C21.585 12.4731 21.598 12.4543 21.6071 12.441L21.6178 12.4253L21.621 12.4206L21.622 12.4191L21.9035 12L21.622 11.5809L21.621 11.5794L21.6178 11.5747L21.6071 11.559C21.598 11.5457 21.585 11.5269 21.5682 11.5029C21.5347 11.4549 21.4859 11.3862 21.4227 11.2997C21.2964 11.1268 21.112 10.8825 20.8757 10.5906C20.4038 10.0078 19.72 9.22922 18.8721 8.44832C17.2031 6.91121 14.7742 5.25 12 5.25ZM3.92572 12C4.02475 11.8689 4.14681 11.7115 4.29019 11.5344C4.72921 10.9922 5.36337 10.2708 6.14416 9.55168C7.73254 8.08879 9.80366 6.75 12 6.75C14.1964 6.75 16.2675 8.08879 17.8559 9.55168C18.6367 10.2708 19.2708 10.9922 19.7099 11.5344C19.8532 11.7115 19.9753 11.8689 20.0743 12C19.9753 12.1311 19.8532 12.2885 19.7099 12.4656C19.2708 13.0078 18.6367 13.7292 17.8559 14.4483C16.2675 15.9112 14.1964 17.25 12 17.25C9.80366 17.25 7.73254 15.9112 6.14416 14.4483C5.36337 13.7292 4.72921 13.0078 4.29019 12.4656C4.14681 12.2885 4.02475 12.1311 3.92572 12Z" fill="#080341"/>
</svg>
